# xmcd
#
# Track frame offsets:
#	150
#	17997
#	31002
#	41625
#	55615
#	70707
#	85212
#	102240
#	110895
#	122535
#
# Disc length: 1859 seconds
#
# Revision: 1
# Processed by: cddbd v1.5.2PL0 Copyright (c) Steve Scherf et al.
# Submitted via: audiograbber 1.83.01
#
DISCID=7b07410a
DTITLE=Waylon Jennings and Jessi Colter - All American Country
DYEAR=2003
DGENRE=Country
TTITLE0=Suspicious Minds
TTITLE1=Under Your Spell Again
TTITLE2=I Ain't The One
TTITLE3=Storms Never Last
TTITLE4=Wild Side Of Life - It Wasn't God Who Made Honky Tonk Angels
TTITLE5=You Never Can Tell (C'est La Vie)
TTITLE6=Sight For Sore Eyes
TTITLE7=I'll Be Alright
TTITLE8=What's Happened To Blue Eyes
TTITLE9=You're Not My Same Sweet Baby
EXTD=
EXTT0=
EXTT1=
EXTT2=
EXTT3=
EXTT4=
EXTT5=
EXTT6=
EXTT7=
EXTT8=
EXTT9=
PLAYORDER=
